<?xml version="1.0" encoding="UTF-8" standalone="no"?>
<svg xmlns:xlink="http://www.w3.org/1999/xlink" height="995px" viewBox="0 0 2081 995" width="2081px" xmlns="http://www.w3.org/2000/svg">
<!-- Rendered by CSSBox http://cssbox.sourceforge.net -->
<g id="bgstore1">
<clipPath id="cssbox-clip-3">
<path d="M 0 0  L 2081 0  L 2081.0 0.0 L 2081 0 L 2081 995  L 2081.0 995.0 L 2081 995 L 0 995  L 0.0 995.0 L 0 995 L 0 0  L 0.0 0.0 L 0 0" fill="none" stroke="none" stroke-width="0"/>
</clipPath>
<g clip-path="url(#cssbox-clip-3)">
<rect height="995" style="stroke:none;fill-opacity:1;fill:#ffffff" width="2081" x="0" y="0"/>
</g>
<g id="borders-2">
<path d="M 0,0 L 2081,0 L 2081,0 L 0,0" fill="#000000" stroke="#000000" stroke-width="0"/>
<path d="M 2081,0 L 2081,995 L 2081,995 L 2081,0" fill="#000000" stroke="#000000" stroke-width="0"/>
<path d="M 0,995 L 2081,995 L 2081,995 L 0,995" fill="#000000" stroke="#000000" stroke-width="0"/>
<path d="M 0,0 L 0,995 L 0,995 L 0,0" fill="#000000" stroke="#000000" stroke-width="0"/>
<path d="M 2081 0  A 0 0 0 0 0 2081 0 L 2081 0  A 0 0 0 0 1 2081 0" fill="none" stroke="none" stroke-width="1"/>
<path d=" M 2081 0  A 0 0 0 0 1 2081 0 L 2081 0  A 0 0 0 0 0 2081 0" fill="none" stroke="none" stroke-width="1"/>
<path d="M 0 0  A 0 0 0 0 0 0 0 L 0 0  A 0 0 0 0 1 0 0" fill="none" stroke="none" stroke-width="1"/>
<path d=" M 0 0  A 0 0 0 0 1 0 0 L 0 0  A 0 0 0 0 0 0 0" fill="none" stroke="none" stroke-width="1"/>
<path d="M 2081 995  A 0 0 0 0 0 2081 995 L 2081 995  A 0 0 0 0 1 2081 995" fill="none" stroke="none" stroke-width="1"/>
<path d=" M 2081 995  A 0 0 0 0 1 2081 995 L 2081 995  A 0 0 0 0 0 2081 995" fill="none" stroke="none" stroke-width="1"/>
<path d="M 0 995  A 0 0 0 0 0 0 995 L 0 995  A 0 0 0 0 1 0 995" fill="none" stroke="none" stroke-width="1"/>
<path d=" M 0 995  A 0 0 0 0 1 0 995 L 0 995  A 0 0 0 0 0 0 995" fill="none" stroke="none" stroke-width="1"/>
</g>
</g>
<g id="bgstore4">
<clipPath id="cssbox-clip-6">
<path d="M 0 0  L 1200 0  L 1200.0 0.0 L 1200 0 L 1200 996  L 1200.0 996.0 L 1200 996 L 0 996  L 0.0 996.0 L 0 996 L 0 0  L 0.0 0.0 L 0 0" fill="none" stroke="none" stroke-width="0"/>
</clipPath>
<g clip-path="url(#cssbox-clip-6)"/>
<g id="borders-5">
<path d="M 0,0 L 1200,0 L 1200,0 L 0,0" fill="#000000" stroke="#000000" stroke-width="0"/>
<path d="M 1200,0 L 1200,996 L 1200,996 L 1200,0" fill="#000000" stroke="#000000" stroke-width="0"/>
<path d="M 0,996 L 1200,996 L 1200,996 L 0,996" fill="#000000" stroke="#000000" stroke-width="0"/>
<path d="M 0,0 L 0,996 L 0,996 L 0,0" fill="#000000" stroke="#000000" stroke-width="0"/>
<path d="M 1200 0  A 0 0 0 0 0 1200 0 L 1200 0  A 0 0 0 0 1 1200 0" fill="none" stroke="none" stroke-width="1"/>
<path d=" M 1200 0  A 0 0 0 0 1 1200 0 L 1200 0  A 0 0 0 0 0 1200 0" fill="none" stroke="none" stroke-width="1"/>
<path d="M 0 0  A 0 0 0 0 0 0 0 L 0 0  A 0 0 0 0 1 0 0" fill="none" stroke="none" stroke-width="1"/>
<path d=" M 0 0  A 0 0 0 0 1 0 0 L 0 0  A 0 0 0 0 0 0 0" fill="none" stroke="none" stroke-width="1"/>
<path d="M 1200 996  A 0 0 0 0 0 1200 996 L 1200 996  A 0 0 0 0 1 1200 996" fill="none" stroke="none" stroke-width="1"/>
<path d=" M 1200 996  A 0 0 0 0 1 1200 996 L 1200 996  A 0 0 0 0 0 1200 996" fill="none" stroke="none" stroke-width="1"/>
<path d="M 0 996  A 0 0 0 0 0 0 996 L 0 996  A 0 0 0 0 1 0 996" fill="none" stroke="none" stroke-width="1"/>
<path d=" M 0 996  A 0 0 0 0 1 0 996 L 0 996  A 0 0 0 0 0 0 996" fill="none" stroke="none" stroke-width="1"/>
</g>
</g>
<g id="bgstore7">
<clipPath id="cssbox-clip-9">
<path d="M 8 8  L 1192 8  L 1192.0 8.0 L 1192 8 L 1192 988  L 1192.0 988.0 L 1192 988 L 8 988  L 8.0 988.0 L 8 988 L 8 8  L 8.0 8.0 L 8 8" fill="none" stroke="none" stroke-width="0"/>
</clipPath>
<g clip-path="url(#cssbox-clip-9)"/>
<g id="borders-8">
<path d="M 8,8 L 1192,8 L 1192,8 L 8,8" fill="#000000" stroke="#000000" stroke-width="0"/>
<path d="M 1192,8 L 1192,988 L 1192,988 L 1192,8" fill="#000000" stroke="#000000" stroke-width="0"/>
<path d="M 8,988 L 1192,988 L 1192,988 L 8,988" fill="#000000" stroke="#000000" stroke-width="0"/>
<path d="M 8,8 L 8,988 L 8,988 L 8,8" fill="#000000" stroke="#000000" stroke-width="0"/>
<path d="M 1192 8  A 0 0 0 0 0 1192 8 L 1192 8  A 0 0 0 0 1 1192 8" fill="none" stroke="none" stroke-width="1"/>
<path d=" M 1192 8  A 0 0 0 0 1 1192 8 L 1192 8  A 0 0 0 0 0 1192 8" fill="none" stroke="none" stroke-width="1"/>
<path d="M 8 8  A 0 0 0 0 0 8 8 L 8 8  A 0 0 0 0 1 8 8" fill="none" stroke="none" stroke-width="1"/>
<path d=" M 8 8  A 0 0 0 0 1 8 8 L 8 8  A 0 0 0 0 0 8 8" fill="none" stroke="none" stroke-width="1"/>
<path d="M 1192 988  A 0 0 0 0 0 1192 988 L 1192 988  A 0 0 0 0 1 1192 988" fill="none" stroke="none" stroke-width="1"/>
<path d=" M 1192 988  A 0 0 0 0 1 1192 988 L 1192 988  A 0 0 0 0 0 1192 988" fill="none" stroke="none" stroke-width="1"/>
<path d="M 8 988  A 0 0 0 0 0 8 988 L 8 988  A 0 0 0 0 1 8 988" fill="none" stroke="none" stroke-width="1"/>
<path d=" M 8 988  A 0 0 0 0 1 8 988 L 8 988  A 0 0 0 0 0 8 988" fill="none" stroke="none" stroke-width="1"/>
</g>
</g>
<g id="bgstore10">
<clipPath id="cssbox-clip-12">
<path d="M 8 8  L 2073 8  L 2073.0 8.0 L 2073 8 L 2073 988  L 2073.0 988.0 L 2073 988 L 8 988  L 8.0 988.0 L 8 988 L 8 8  L 8.0 8.0 L 8 8" fill="none" stroke="none" stroke-width="0"/>
</clipPath>
<g clip-path="url(#cssbox-clip-12)"/>
<g id="borders-11">
<path d="M 8,8 L 2073,8 L 2073,8 L 8,8" fill="#000000" stroke="#000000" stroke-width="0"/>
<path d="M 2073,8 L 2073,988 L 2073,988 L 2073,8" fill="#000000" stroke="#000000" stroke-width="0"/>
<path d="M 8,988 L 2073,988 L 2073,988 L 8,988" fill="#000000" stroke="#000000" stroke-width="0"/>
<path d="M 8,8 L 8,988 L 8,988 L 8,8" fill="#000000" stroke="#000000" stroke-width="0"/>
<path d="M 2073 8  A 0 0 0 0 0 2073 8 L 2073 8  A 0 0 0 0 1 2073 8" fill="none" stroke="none" stroke-width="1"/>
<path d=" M 2073 8  A 0 0 0 0 1 2073 8 L 2073 8  A 0 0 0 0 0 2073 8" fill="none" stroke="none" stroke-width="1"/>
<path d="M 8 8  A 0 0 0 0 0 8 8 L 8 8  A 0 0 0 0 1 8 8" fill="none" stroke="none" stroke-width="1"/>
<path d=" M 8 8  A 0 0 0 0 1 8 8 L 8 8  A 0 0 0 0 0 8 8" fill="none" stroke="none" stroke-width="1"/>
<path d="M 2073 988  A 0 0 0 0 0 2073 988 L 2073 988  A 0 0 0 0 1 2073 988" fill="none" stroke="none" stroke-width="1"/>
<path d=" M 2073 988  A 0 0 0 0 1 2073 988 L 2073 988  A 0 0 0 0 0 2073 988" fill="none" stroke="none" stroke-width="1"/>
<path d="M 8 988  A 0 0 0 0 0 8 988 L 8 988  A 0 0 0 0 1 8 988" fill="none" stroke="none" stroke-width="1"/>
<path d=" M 8 988  A 0 0 0 0 1 8 988 L 8 988  A 0 0 0 0 0 8 988" fill="none" stroke="none" stroke-width="1"/>
</g>
</g>
<text height="15" xml:space="preserve" style="font-size:10.274999856948853pt;font-weight:normal;font-style:normal;font-family:Ubuntu Mono;fill:#000000;stroke:none" width="2065" x="8" y="20">                                                                                                                                                                                                                                                                                                       </text>
<text height="15" xml:space="preserve" style="font-size:10.274999856948853pt;font-weight:normal;font-style:normal;font-family:Ubuntu Mono;fill:#000000;stroke:none" width="2065" x="8" y="34">                                                                                                                                                                                                                                                                                                       </text>
<text height="15" xml:space="preserve" style="font-size:10.274999856948853pt;font-weight:normal;font-style:normal;font-family:Ubuntu Mono;fill:#000000;stroke:none" width="2065" x="8" y="48">                                                                                                                                                                                                                                                                                                       </text>
<text height="15" xml:space="preserve" style="font-size:10.274999856948853pt;font-weight:normal;font-style:normal;font-family:Ubuntu Mono;fill:#000000;stroke:none" width="2065" x="8" y="62">                                                                                                                                                                                                                                                                                                       </text>
<text height="15" xml:space="preserve" style="font-size:10.274999856948853pt;font-weight:normal;font-style:normal;font-family:Ubuntu Mono;fill:#000000;stroke:none" width="2065" x="8" y="76">                                                                                                                                                                                                                                                                                                       </text>
<text height="15" xml:space="preserve" style="font-size:10.274999856948853pt;font-weight:normal;font-style:normal;font-family:Ubuntu Mono;fill:#000000;stroke:none" width="2065" x="8" y="90">                                                                                                                                                                                                                                                                                                       </text>
<text height="15" xml:space="preserve" style="font-size:10.274999856948853pt;font-weight:normal;font-style:normal;font-family:Ubuntu Mono;fill:#000000;stroke:none" width="2065" x="8" y="104">                                                                                                                                                                                                                                                                                                       </text>
<text height="15" xml:space="preserve" style="font-size:10.274999856948853pt;font-weight:normal;font-style:normal;font-family:Ubuntu Mono;fill:#000000;stroke:none" width="2065" x="8" y="118">                                                                                                                                                                                                                                                                                                       </text>
<text height="15" xml:space="preserve" style="font-size:10.274999856948853pt;font-weight:normal;font-style:normal;font-family:Ubuntu Mono;fill:#000000;stroke:none" width="2065" x="8" y="132">                                                                                                                                                                                                                                                                                                       </text>
<text height="15" xml:space="preserve" style="font-size:10.274999856948853pt;font-weight:normal;font-style:normal;font-family:Ubuntu Mono;fill:#000000;stroke:none" width="2065" x="8" y="146">                                                                                                                                                                                                                                                                                                       </text>
<text height="15" xml:space="preserve" style="font-size:10.274999856948853pt;font-weight:normal;font-style:normal;font-family:Ubuntu Mono;fill:#000000;stroke:none" width="2065" x="8" y="160">                                                                                                                                                                                                                                                                                                       </text>
<text height="15" xml:space="preserve" style="font-size:10.274999856948853pt;font-weight:normal;font-style:normal;font-family:Ubuntu Mono;fill:#000000;stroke:none" width="2065" x="8" y="174">                                                                                                                                                                                                                                                                                                       </text>
<text height="15" xml:space="preserve" style="font-size:10.274999856948853pt;font-weight:normal;font-style:normal;font-family:Ubuntu Mono;fill:#000000;stroke:none" width="2065" x="8" y="188">                                                                                                                                                                                                                                                                                                       </text>
<text height="15" xml:space="preserve" style="font-size:10.274999856948853pt;font-weight:normal;font-style:normal;font-family:Ubuntu Mono;fill:#000000;stroke:none" width="2065" x="8" y="202">                                                                                                                                                                                                                                                                                                       </text>
<text height="15" xml:space="preserve" style="font-size:10.274999856948853pt;font-weight:normal;font-style:normal;font-family:Ubuntu Mono;fill:#000000;stroke:none" width="2065" x="8" y="216">                                                                                                                                                                                                                                                                                                       </text>
<text height="15" xml:space="preserve" style="font-size:10.274999856948853pt;font-weight:normal;font-style:normal;font-family:Ubuntu Mono;fill:#000000;stroke:none" width="2065" x="8" y="230">                                                                                                                                                                                                                                                                                                       </text>
<text height="15" xml:space="preserve" style="font-size:10.274999856948853pt;font-weight:normal;font-style:normal;font-family:Ubuntu Mono;fill:#000000;stroke:none" width="2065" x="8" y="244">                                                                                                                                                                                                                                                                                                       </text>
<text height="15" xml:space="preserve" style="font-size:10.274999856948853pt;font-weight:normal;font-style:normal;font-family:Ubuntu Mono;fill:#000000;stroke:none" width="2065" x="8" y="258">                                                                                                                                                                                                                                                                                                       </text>
<text height="15" xml:space="preserve" style="font-size:10.274999856948853pt;font-weight:normal;font-style:normal;font-family:Ubuntu Mono;fill:#000000;stroke:none" width="2065" x="8" y="272">                                                                                                                                                                                                                                                                                                       </text>
<text height="15" xml:space="preserve" style="font-size:10.274999856948853pt;font-weight:normal;font-style:normal;font-family:Ubuntu Mono;fill:#000000;stroke:none" width="2065" x="8" y="286">                                                                                                                                                                                                                                                                                                       </text>
<text height="15" xml:space="preserve" style="font-size:10.274999856948853pt;font-weight:normal;font-style:normal;font-family:Ubuntu Mono;fill:#000000;stroke:none" width="2065" x="8" y="300">                                                                                                                                                                                                                                                                                                       </text>
<text height="15" xml:space="preserve" style="font-size:10.274999856948853pt;font-weight:normal;font-style:normal;font-family:Ubuntu Mono;fill:#000000;stroke:none" width="2065" x="8" y="314">                                                                                                                                                                                      111                                                                                                              </text>
<text height="15" xml:space="preserve" style="font-size:10.274999856948853pt;font-weight:normal;font-style:normal;font-family:Ubuntu Mono;fill:#000000;stroke:none" width="2065" x="8" y="328">                                                                                                                                                                                      101                                                                                                              </text>
<text height="15" xml:space="preserve" style="font-size:10.274999856948853pt;font-weight:normal;font-style:normal;font-family:Ubuntu Mono;fill:#000000;stroke:none" width="2065" x="8" y="342">                                                                                                                                                                                     11011                                                                                                             </text>
<text height="15" xml:space="preserve" style="font-size:10.274999856948853pt;font-weight:normal;font-style:normal;font-family:Ubuntu Mono;fill:#000000;stroke:none" width="2065" x="8" y="356">                                                                  1011101101                                                                                                        1100111                                                                                                            </text>
<text height="15" xml:space="preserve" style="font-size:10.274999856948853pt;font-weight:normal;font-style:normal;font-family:Ubuntu Mono;fill:#000000;stroke:none" width="2065" x="8" y="370">                                                                 111      111                                                                                                      110101001                                                                                                           </text>
<text height="15" xml:space="preserve" style="font-size:10.274999856948853pt;font-weight:normal;font-style:normal;font-family:Ubuntu Mono;fill:#000000;stroke:none" width="2065" x="8" y="384">                                                                 11        11                                                                                                      111111111                                                                                                           </text>
<text height="15" xml:space="preserve" style="font-size:10.274999856948853pt;font-weight:normal;font-style:normal;font-family:Ubuntu Mono;fill:#000000;stroke:none" width="2065" x="8" y="398">                                                                 101001011011                                                                                                     11010000111                                                                                                          </text>
<text height="15" xml:space="preserve" style="font-size:10.274999856948853pt;font-weight:normal;font-style:normal;font-family:Ubuntu Mono;fill:#000000;stroke:none" width="2065" x="8" y="412">                                                                 100011001011                                                                                                     10100000111                                                                                                          </text>
<text height="15" xml:space="preserve" style="font-size:10.274999856948853pt;font-weight:normal;font-style:normal;font-family:Ubuntu Mono;fill:#000000;stroke:none" width="2065" x="8" y="426">                                                                 100101101011                                                                                                     11101101111                                                                                                          </text>
<text height="15" xml:space="preserve" style="font-size:10.274999856948853pt;font-weight:normal;font-style:normal;font-family:Ubuntu Mono;fill:#000000;stroke:none" width="2065" x="8" y="440">                                                                 110100101101                                                                                                    1110000110011                                                                                                         </text>
<text height="15" xml:space="preserve" style="font-size:10.274999856948853pt;font-weight:normal;font-style:normal;font-family:Ubuntu Mono;fill:#000000;stroke:none" width="2065" x="8" y="454">                                                                 101010101111                                                                                                    1111001000101                                                                                                         </text>
<text height="15" xml:space="preserve" style="font-size:10.274999856948853pt;font-weight:normal;font-style:normal;font-family:Ubuntu Mono;fill:#000000;stroke:none" width="2065" x="8" y="468">                                                                 111000000111                                                                                                    1110011001111                                                                                                         </text>
<text height="15" xml:space="preserve" style="font-size:10.274999856948853pt;font-weight:normal;font-style:normal;font-family:Ubuntu Mono;fill:#000000;stroke:none" width="2065" x="8" y="482">                                                                 110010010011                                                                                                    1100101011011       10111                                                                                             </text>
<text height="15" xml:space="preserve" style="font-size:10.274999856948853pt;font-weight:normal;font-style:normal;font-family:Ubuntu Mono;fill:#000000;stroke:none" width="2065" x="8" y="496">                                                                 110000101001                                                                                                    1101101010001     110111101                                                                                           </text>
<text height="15" xml:space="preserve" style="font-size:10.274999856948853pt;font-weight:normal;font-style:normal;font-family:Ubuntu Mono;fill:#000000;stroke:none" width="2065" x="8" y="510">                                                                 111001001001                                                                                                    1110111000111    11011011011                                                                                          </text>
<text height="15" xml:space="preserve" style="font-size:10.274999856948853pt;font-weight:normal;font-style:normal;font-family:Ubuntu Mono;fill:#000000;stroke:none" width="2065" x="8" y="524">                                                                 100000101111  101100101                                                                              111        1010101001011   1000001010011                                                                                         </text>
<text height="15" xml:space="preserve" style="font-size:10.274999856948853pt;font-weight:normal;font-style:normal;font-family:Ubuntu Mono;fill:#000000;stroke:none" width="2065" x="8" y="538">                                                                 101010010011  110000101                               1101110001                  1         1       11111       1001100000111  101011000100111           11001                                                                        </text>
<text height="15" xml:space="preserve" style="font-size:10.274999856948853pt;font-weight:normal;font-style:normal;font-family:Ubuntu Mono;fill:#000000;stroke:none" width="2065" x="8" y="552">                                                       10010111  100111111101  101110011                              100110000011                 11111110101     110111111     1100001101101  111011110110111          1101111     10101011                                                          </text>
<text height="15" xml:space="preserve" style="font-size:10.274999856948853pt;font-weight:normal;font-style:normal;font-family:Ubuntu Mono;fill:#000000;stroke:none" width="2065" x="8" y="566">                                                       10001101  100000110011  101100111                              11100010110111101010010111   11010010001     100001111     1011110001011  100111000111011          1100111    1110010011                                                         </text>
<text height="15" xml:space="preserve" style="font-size:10.274999856948853pt;font-weight:normal;font-style:normal;font-family:Ubuntu Mono;fill:#000000;stroke:none" width="2065" x="8" y="580">                                                  1    10000001  111011110001  101011001                              11111000111110010010000111   10000111101    11110011111    1001100101111  101110101011001          1010011  111110111111                                                         </text>
<text height="15" xml:space="preserve" style="font-size:10.274999856948853pt;font-weight:normal;font-style:normal;font-family:Ubuntu Mono;fill:#000000;stroke:none" width="2065" x="8" y="594">                                                11001  11011101  101000101011  101100101                              11010010110101100010101001   11110011111    10001001101    1000110100001  110011011011011    1011100110001  100001110001       110100101                                         </text>
<text height="15" xml:space="preserve" style="font-size:10.274999856948853pt;font-weight:normal;font-style:normal;font-family:Ubuntu Mono;fill:#000000;stroke:none" width="2065" x="8" y="608">                                                11011  10010011  101111000101  101100101               11         11  11101110111101000110011101   11110010011    10001000011    1001111011101  111001000110111   10100100110111  100100011001      11000100001                                        </text>
<text height="15" xml:space="preserve" style="font-size:10.274999856948853pt;font-weight:normal;font-style:normal;font-family:Ubuntu Mono;fill:#000000;stroke:none" width="2065" x="8" y="622">                                           11101101100010011111  101010010101  111110111              101000011001101 10100101010011000100110001   10111100101    11001110111    1010111011101  111011100000011   11110100001101  110011001101001   11010011101                                        </text>
<text height="15" xml:space="preserve" style="font-size:10.274999856948853pt;font-weight:normal;font-style:normal;font-family:Ubuntu Mono;fill:#000000;stroke:none" width="2065" x="8" y="636">                           100001010111    10100000001101000111  110010110101  101010001              100110010110111 11110100110101100001100011   11101110101    11000100001    1100010011011  100111001001101   10101000000111  1001100101001111  11110001101                                        </text>
<text height="15" xml:space="preserve" style="font-size:10.274999856948853pt;font-weight:normal;font-style:normal;font-family:Ubuntu Mono;fill:#000000;stroke:none" width="2065" x="8" y="650">                           110000111001    10010001101110111111  10100111110101110110001              110011011101101 11111111001000101010010111   10001100011    10111101101   110010000111111 100010110110001   11011001010001  1000100111100011  10001010011                                        </text>
<text height="15" xml:space="preserve" style="font-size:10.274999856948853pt;font-weight:normal;font-style:normal;font-family:Ubuntu Mono;fill:#000000;stroke:none" width="2065" x="8" y="664">                           110010100111    11100001111010101101  10101111010100110101001              101010100110001110101000011000010100100001   10001010101    10100010001   110000011010101 101011010000011   11111000111001  1111001010100001  11101111001                                        </text>
<text height="15" xml:space="preserve" style="font-size:10.274999856948853pt;font-weight:normal;font-style:normal;font-family:Ubuntu Mono;fill:#000000;stroke:none" width="2065" x="8" y="678">                           101101111011    11110110011000000001 100010010000110100100101000110001001  111100101110001001000010111011011100011001   11111001111    10000000101   100101011100011  1010100101111    11011000101011  1011001010111011  10100010001  100011001                             </text>
<text height="15" xml:space="preserve" style="font-size:10.274999856948853pt;font-weight:normal;font-style:normal;font-family:Ubuntu Mono;fill:#000000;stroke:none" width="2065" x="8" y="692">                           101101100001    1111101011101000011011100000011000001011111011100110010101 11100101010101110000010100100001101011101001 10011100111    11000010111101010111010101011100011010011111    11110111000011  1001110101010101  10000001111 101010100000011          1101          </text>
<text height="15" xml:space="preserve" style="font-size:10.274999856948853pt;font-weight:normal;font-style:normal;font-family:Ubuntu Mono;fill:#000000;stroke:none" width="2065" x="8" y="706">                11101011   110100100011    1011111111011100110010110101011110111010111110001101001111 10111110111000011110110000100010001111111111 10011110101    10000011010000101000000110001011011110111011    11011000000011  1100001101011001  11100100111 1000001110101001001      1001          </text>
<text height="15" xml:space="preserve" style="font-size:10.274999856948853pt;font-weight:normal;font-style:normal;font-family:Ubuntu Mono;fill:#000000;stroke:none" width="2065" x="8" y="720">        11      10111001   101110110001 1110010110000000000011100001001100101110000001011110111000001 10010001111000000111101010110010010111110101 10110011111    10000110010011000011000011011101101011011101    10110011000000101001010111110100010101000101011001100110001110111      1001  1111    </text>
<text height="15" xml:space="preserve" style="font-size:10.274999856948853pt;font-weight:normal;font-style:normal;font-family:Ubuntu Mono;fill:#000000;stroke:none" width="2065" x="8" y="734">      100111011 10111111000010010101111 1100101110000111110100101111110100100100010010101101110010011 10011001000111100011011100100000111110001011 11000001111101110000010001010110010100100001001110010110011    11001001111110110001001010010010101111000001101100111111100100101      1011  10101   </text>
<text height="15" xml:space="preserve" style="font-size:10.274999856948853pt;font-weight:normal;font-style:normal;font-family:Ubuntu Mono;fill:#000000;stroke:none" width="2065" x="8" y="748">   101000110001 1000000110100101101000100101100010111010111000001100111110010000010010101110011100010000101101101110000101001101110111000110110111 10101101100011000010001000101011011011111011111110011010000000100011000001001000000010101011110001100010100110011010101111110001      110101010011  </text>
<text height="15" xml:space="preserve" style="font-size:10.274999856948853pt;font-weight:normal;font-style:normal;font-family:Ubuntu Mono;fill:#000000;stroke:none" width="2065" x="8" y="762">   11011110111010010111010110101111010110101011100010111101110010000000100100001100011000110111010110001110011110110111111010100101110100110110001100100001000011101001101100000010000110111000110100100100010011011010000110011000010110110100001111001010100001111111010001010011     110001010010011</text>
<text height="15" xml:space="preserve" style="font-size:10.274999856948853pt;font-weight:normal;font-style:normal;font-family:Ubuntu Mono;fill:#000000;stroke:none" width="2065" x="8" y="776">10000110110010001101101010110000101001000110110011111010010110101011101001100100110010101100011101111101011111111110010001100000100000100101100011100100100001111100000000101001000100110111000101101000010100010000110011000100011001010010110110101010010010100010011111110111101 1001110001000010111</text>
<text height="15" xml:space="preserve" style="font-size:10.274999856948853pt;font-weight:normal;font-style:normal;font-family:Ubuntu Mono;fill:#000000;stroke:none" width="2065" x="8" y="790">11110110111100001100000011110000001100001011011101101001110000000100101111000111101001101111100111001100101100110101100011000101011100111011101101001101000111010101001110001111100011101001010111011101100010010110010111111001001111011000011010010001001011101101100000010010011 1111101010001000101</text>
<text height="15" xml:space="preserve" style="font-size:10.274999856948853pt;font-weight:normal;font-style:normal;font-family:Ubuntu Mono;fill:#000000;stroke:none" width="2065" x="8" y="804">10011111000110001100101001011111110001111101101001001100000011101010011101100001110000000001000101000111010010010110010011100100101101111110111111001111110001011100010001010001000110000111011010001000010100001111011001001001000001111110010101111011110110100101011001111110111 1110111101101111111</text>
<text height="15" xml:space="preserve" style="font-size:10.274999856948853pt;font-weight:normal;font-style:normal;font-family:Ubuntu Mono;fill:#000000;stroke:none" width="2065" x="8" y="818">1001111101110010010111001100010010101111010011000110101111100111001111001001010110001010101110111110111101001101100111010110011110110001110001010000010000000111011011101000101100000101001101000001100001000100001100011110011000100111011111111100000101101110110111001101111100100010000101110111001</text>
<text height="15" xml:space="preserve" style="font-size:10.274999856948853pt;font-weight:normal;font-style:normal;font-family:Ubuntu Mono;fill:#000000;stroke:none" width="2065" x="8" y="832">1110100100100001001000110110110000000011001110100000100101101110111111000110100001100011110110011110101110100101111000000101010101000001110100001000101000101101111101110111100100000011001000111110101001000110001101010111110110101001011011101101110100110001000101001001001100101000100110001011101</text>
<text height="15" xml:space="preserve" style="font-size:10.274999856948853pt;font-weight:normal;font-style:normal;font-family:Ubuntu Mono;fill:#000000;stroke:none" width="2065" x="8" y="846">1110000011001001010110000000101111110001100100010010110101101100101111010110011110001000110000000101010111011101111001011000110001110000001000100100010001000111010110101100001001010001001100010010011101000001110100001101100110101110111101111001001000110101110101011111100000010111110011101101001</text>
<text height="15" xml:space="preserve" style="font-size:10.274999856948853pt;font-weight:normal;font-style:normal;font-family:Ubuntu Mono;fill:#000000;stroke:none" width="2065" x="8" y="860">1011011100101100100111101000111010000110111011010011100111110100111000000000110100001111101101101001101101111010000010000000101110001110010010000010101011001101111101100100010011000111010011010001111110101001111100110101110011010110000001001110001111011001101100000110110011110010101100011001001</text>
<text height="15" xml:space="preserve" style="font-size:10.274999856948853pt;font-weight:normal;font-style:normal;font-family:Ubuntu Mono;fill:#000000;stroke:none" width="2065" x="8" y="874">1011111011100100111001101110000110100100101000100110011001100101000010111010110110111010010101111000000001100010100000100001001100111010011111100010101100110011011011101000110010011000000100111110010001000000000110100110001101110100001011110100100111000110010000010010111100101100000100001100111</text>
<text height="15" xml:space="preserve" style="font-size:10.274999856948853pt;font-weight:normal;font-style:normal;font-family:Ubuntu Mono;fill:#000000;stroke:none" width="2065" x="8" y="888">1111001001111110100000000100100111010111110010110010010110011001000010001101111010000110001100101111110100110001100000010111110111111011010100101010000011001000001010111111110101101010010111111110111111110000110010011001010110011000100001111101011001000110000110111010000010111110111110111011001</text>
<text height="15" xml:space="preserve" style="font-size:10.274999856948853pt;font-weight:normal;font-style:normal;font-family:Ubuntu Mono;fill:#000000;stroke:none" width="2065" x="8" y="902">1111110011100111100000100101101110011010110000101000001101010011101101101100010001110111011101011011010010011110011000111110110000010110001011110011010001010110000101110001100011101101000001001000001111011010101111011010101111101101010011111010011110010110111101000000111111010010100011110011111</text>
<text height="15" xml:space="preserve" style="font-size:10.274999856948853pt;font-weight:normal;font-style:normal;font-family:Ubuntu Mono;fill:#000000;stroke:none" width="2065" x="8" y="916">1011111101001010100011001100010100010010100011101000011101100100101101111010000010110101001101101110010000100000110010100100011111001111000001001110111101111010101010110111000001010100100111010100100011000101011100011001011111100111010110111101101011101110011110111011000011000010110010110111101</text>
<text height="15" xml:space="preserve" style="font-size:10.274999856948853pt;font-weight:normal;font-style:normal;font-family:Ubuntu Mono;fill:#000000;stroke:none" width="2065" x="8" y="930">1010110011110110001101001100001010010101100111011110110111100001101100111001000011001000010111010110011010010011001100111100110011000110101011100110000000110101010000100100101001100011101010101010111110111010000100010101010101010000101010111100100011011101101101000111101111111011110010100110111</text>
<text height="15" xml:space="preserve" style="font-size:10.274999856948853pt;font-weight:normal;font-style:normal;font-family:Ubuntu Mono;fill:#000000;stroke:none" width="2065" x="8" y="944">1101100000111011111001000100110000001000011011010000101101111101101111010110110011001001110011000001111001001100100011000111011010101100111101111000001001100110001100000001000100001001100001101011010001011100000010100101001000111111001001000011001111101011000000111000001111010010000000010101011</text>
<text height="15" xml:space="preserve" style="font-size:10.274999856948853pt;font-weight:normal;font-style:normal;font-family:Ubuntu Mono;fill:#000000;stroke:none" width="2065" x="8" y="958">1010110010000101110111110011010100000110110001110110101100111110011100011111011101010100100011101010010101101111101110110101010011000000110000100111010010110110010111011001011001110000111110001010111111011110101111101011001101001010010111011001110010110101000100101011001001001110110100101010111</text>
<text height="15" xml:space="preserve" style="font-size:10.274999856948853pt;font-weight:normal;font-style:normal;font-family:Ubuntu Mono;fill:#000000;stroke:none" width="2065" x="8" y="972">1100010110111100110010111101101101100101001100110011010000000000110111010110001000010000010111000010010001100110110101000110000001100110011100101010000011011111101110001100010010100011010100111010010111111010000101000100010010101100001011000100011010011011001100100101111110100100101100100010011</text>
<text height="15" xml:space="preserve" style="font-size:10.274999856948853pt;font-weight:normal;font-style:normal;font-family:Ubuntu Mono;fill:#000000;stroke:none" width="2065" x="8" y="986">1000111011010011010010110101000001111001011111110111111011000001001100100111001101101101101110111110100001111001000110101111110110110100111110101011011010000101100000100000010101010111001110000011001101010010110011010001101111010001101100011110011101111100001011111110100110010111101100011001101</text>
</svg>
